<svg width="520" height="120" viewBox="0 0 520 120" xmlns="http://www.w3.org/2000/svg">
  <g transform="translate(10, 10) scale(0.39)">
    <path d="M128 40 L188 62 L188 128 C188 172 162 198 128 216 C94 198 68 172 68 128 L68 62 Z"
          fill="none" stroke="#22d3ee" stroke-width="8" stroke-linejoin="round"/>
    <circle cx="128" cy="90" r="8" fill="#22d3ee"/>
    <circle cx="100" cy="120" r="6" fill="#22d3ee" opacity="0.9"/>
    <circle cx="156" cy="120" r="6" fill="#22d3ee" opacity="0.9"/>
    <circle cx="128" cy="150" r="6" fill="#22d3ee" opacity="0.9"/>
    <circle cx="128" cy="180" r="7" fill="#22d3ee"/>
    <path d="M128 98 L100 114 M128 98 L156 114 M100 126 L128 150 M156 126 L128 150 M128 157 L128 173"
          stroke="#22d3ee" stroke-width="3" stroke-linecap="round" opacity="0.95"/>
  </g>
  <text x="112" y="56" font-family="Arial, Helvetica, sans-serif" font-size="30" font-weight="700" fill="#22d3ee">Everyday</text>
  <text x="112" y="90" font-family="Arial, Helvetica, sans-serif" font-size="30" font-weight="700" fill="#ffffff">Cyber AI</text>
</svg>
